<svg version="1" xmlns="http://www.w3.org/2000/svg" width="529.333" height="422.667" viewBox="0 0 397.000000 317.000000"><path d="M122.4 3c-4.8 1.9-6.4 5.6-6.4 15.1V27H60.9l-2.6-3-2.5-3H19.2l-2.4 2.9c-1.5 1.7-3.9 3.1-6.1 3.5-2.2.4-4.5 1.8-6.1 3.7L2 34.2V112h50.3l50.2-.1 4.9-7c21.1-29.8 59.7-47.1 96.2-43 30.8 3.5 58.1 19.2 75 43l4.9 7 54.8.1H393V34l-2.9-3.2-2.9-3.3-55.6-.3L276 27v-9c0-8.5-.2-9.1-2.9-12.2l-2.9-3.3-72.9-.2c-40-.1-73.8.2-74.9.7z"/><path d="M177.5 93.6c-47.6 10.6-72.9 61.6-52 105 9.3 19.3 27.4 34.2 48.5 40 9 2.5 29 2.5 38 0 26-7.1 46.6-27.7 53.7-53.6 2.4-8.9 2.4-28.1 0-37-7-25.7-27.7-46.5-53.2-53.5-8.7-2.4-26.4-2.8-35-.9z"/><path d="M2 211.5c0 101.7-.2 97.7 5.5 100.3 3.8 1.7 376.2 1.7 380 0 5.7-2.6 5.5 1.4 5.5-100.3V118H287.3l3.3 8.2c10.2 25.5 10.8 49.8 1.9 75.7-2.5 7.4-3 11.5-1.9 14.5.3.9 8.3 8.3 17.7 16.4 23.5 20.4 21.8 17.9 16.4 24.9-2.5 3.2-6.3 7.5-8.5 9.7l-4.1 3.9-4.3-3.4c-2.4-1.9-10.7-8.9-18.5-15.6-10.9-9.4-14.9-12.3-17.1-12.3-1.9 0-4.7 1.6-8.7 5.1-17.9 15.1-36.9 23.4-59.9 26-47 5.3-93.4-23.6-109.7-68.1-9.4-25.8-8.9-50.8 1.5-76.8l3.3-8.2H2v93.5z"/></svg>