<?xml version="1.0" encoding="UTF-8" ?>
<!DOCTYPE svg PUBLIC "-//W3C//DTD SVG 1.1//EN" "http://www.w3.org/Graphics/SVG/1.1/DTD/svg11.dtd">
<svg width="397pt" height="317pt" viewBox="0 0 397 317" version="1.1" xmlns="http://www.w3.org/2000/svg">
<path fill="#fcfcfc" d=" M 0.00 0.00 L 397.00 0.00 L 397.00 317.00 L 0.00 317.00 L 0.00 0.00 Z" />
<path fill="#606060" d=" M 118.63 5.12 C 120.91 3.09 123.81 1.82 126.90 2.01 C 172.96 2.00 219.02 1.98 265.08 2.02 C 269.44 1.72 273.45 4.30 275.40 8.13 C 272.32 8.78 269.22 9.46 266.06 9.54 C 220.35 9.48 174.63 9.47 128.93 9.54 C 124.94 9.82 121.59 7.46 118.63 5.12 Z" />
<path fill="#010101" d=" M 116.06 11.08 C 116.15 8.83 117.60 7.01 118.63 5.12 C 121.59 7.46 124.94 9.82 128.93 9.54 C 174.63 9.47 220.35 9.48 266.06 9.54 C 269.22 9.46 272.32 8.78 275.40 8.13 C 276.47 14.39 275.84 20.77 275.97 27.09 C 275.94 29.92 276.18 32.75 276.41 35.58 C 281.63 35.50 286.79 34.67 292.00 34.57 C 318.00 34.61 344.00 34.63 370.00 34.56 C 377.31 34.44 384.70 36.58 391.93 34.63 L 392.79 34.46 C 393.27 60.30 392.87 86.16 392.99 112.00 C 358.00 112.01 323.01 112.03 288.02 111.99 C 269.03 78.68 231.44 56.71 193.00 57.46 C 154.58 56.76 116.96 78.67 97.98 111.99 C 65.99 112.02 34.00 112.01 2.01 112.00 C 1.99 89.67 2.00 67.34 2.00 45.01 C 2.12 40.58 1.39 35.95 3.29 31.79 C 7.67 34.19 12.60 35.00 17.55 34.87 C 16.50 32.31 15.58 29.70 14.63 27.10 C 15.89 24.41 17.67 21.33 21.00 21.10 C 31.69 20.89 42.39 21.02 53.07 21.03 C 56.86 20.83 59.11 24.22 60.50 27.24 C 59.40 29.85 58.16 32.40 56.74 34.86 C 71.49 34.32 86.25 34.71 101.01 34.62 C 105.86 34.81 110.71 34.40 115.45 33.40 C 115.60 31.27 115.80 29.14 115.94 27.01 C 116.16 21.70 115.85 16.39 116.06 11.08 Z" />
<path fill="#606060" d=" M 3.29 31.79 C 5.80 28.09 10.29 26.43 14.63 27.10 C 15.58 29.70 16.50 32.31 17.55 34.87 C 12.60 35.00 7.67 34.19 3.29 31.79 Z" />
<path fill="#606060" d=" M 60.50 27.24 C 78.97 26.69 97.46 27.14 115.94 27.01 C 115.80 29.14 115.60 31.27 115.45 33.40 C 110.71 34.40 105.86 34.81 101.01 34.62 C 86.25 34.71 71.49 34.32 56.74 34.86 C 58.16 32.40 59.40 29.85 60.50 27.24 Z" />
<path fill="#606060" d=" M 275.97 27.09 C 311.34 26.90 346.71 27.03 382.08 27.02 C 386.94 26.66 391.32 29.93 392.96 34.41 L 391.93 34.63 C 384.70 36.58 377.31 34.44 370.00 34.56 C 344.00 34.63 318.00 34.61 292.00 34.57 C 286.79 34.67 281.63 35.50 276.41 35.58 C 276.18 32.75 275.94 29.92 275.97 27.09 Z" />
<path fill="#606060" d=" M 97.98 111.99 C 116.96 78.67 154.58 56.76 193.00 57.46 C 231.44 56.71 269.03 78.68 288.02 111.99 C 286.42 111.99 284.81 112.07 283.22 111.85 C 281.39 110.28 280.31 108.05 278.90 106.14 C 263.10 83.50 237.87 67.78 210.66 63.29 C 190.52 59.75 169.39 62.46 150.67 70.64 C 131.74 78.91 115.37 92.85 104.26 110.27 C 103.10 112.73 100.15 111.85 97.98 111.99 Z" />
<path fill="#010101" d=" M 183.43 92.62 C 198.74 90.57 214.65 93.52 228.27 100.78 C 242.02 108.06 253.41 119.72 260.31 133.67 C 267.47 148.01 269.75 164.72 266.67 180.45 C 263.50 197.35 254.12 212.92 240.84 223.82 C 229.98 232.80 216.55 238.66 202.56 240.39 C 183.66 242.91 163.89 237.80 148.56 226.47 C 133.97 215.83 123.40 199.78 119.66 182.10 C 116.16 166.14 118.21 149.03 125.37 134.35 C 136.07 111.84 158.68 95.56 183.43 92.62 Z" />
<path fill="#010101" d=" M 2.01 118.00 C 32.79 117.99 63.57 117.99 94.35 118.00 C 88.09 132.52 83.26 148.01 83.48 163.98 C 82.49 189.41 91.41 214.92 107.35 234.68 C 123.29 254.49 146.28 268.64 171.28 273.50 C 200.08 279.40 231.22 273.18 255.34 256.28 C 260.58 252.99 264.74 248.27 269.97 244.98 C 272.95 243.18 275.94 246.05 278.24 247.73 C 285.99 254.67 293.94 261.39 301.77 268.25 C 304.83 270.97 308.68 273.21 312.95 272.66 C 317.63 272.74 320.58 268.59 323.48 265.53 C 326.73 261.62 331.01 257.52 330.68 252.00 C 331.07 247.51 327.56 244.25 324.50 241.56 C 315.84 234.20 307.32 226.69 298.64 219.36 C 296.62 217.53 294.41 215.62 293.53 212.95 C 293.65 209.60 295.05 206.47 296.13 203.34 C 300.80 191.16 302.93 178.03 302.53 164.99 C 302.91 148.68 298.05 132.83 291.66 118.00 C 325.43 117.99 359.21 117.99 392.99 118.00 C 393.01 178.33 392.99 238.66 393.01 299.00 C 392.98 300.99 393.09 303.00 392.82 304.99 C 392.05 309.52 387.69 313.20 383.07 313.00 C 259.36 313.00 135.64 313.00 11.93 313.00 C 6.63 313.24 1.77 308.37 2.01 303.07 C 1.99 241.38 2.00 179.69 2.01 118.00 Z" />
<path fill="#606060" d=" M 94.35 118.00 C 96.14 117.99 97.93 118.01 99.72 118.04 C 89.43 137.76 85.43 160.80 89.08 182.78 C 92.50 204.95 103.42 225.86 119.54 241.45 C 135.86 257.32 157.43 267.71 180.04 270.40 C 205.33 273.68 231.69 267.18 252.67 252.73 C 259.51 248.10 265.60 242.48 271.41 236.65 C 285.65 247.23 298.13 259.99 312.16 270.84 C 318.12 264.88 323.65 258.49 328.86 251.86 C 315.90 239.52 301.78 228.44 288.60 216.35 C 286.11 214.15 288.70 210.83 289.43 208.37 C 302.20 179.83 300.93 145.64 286.28 118.04 C 288.07 118.01 289.86 117.99 291.66 118.00 C 298.05 132.83 302.91 148.68 302.53 164.99 C 302.93 178.03 300.80 191.16 296.13 203.34 C 295.05 206.47 293.65 209.60 293.53 212.95 C 294.41 215.62 296.62 217.53 298.64 219.36 C 307.32 226.69 315.84 234.20 324.50 241.56 C 327.56 244.25 331.07 247.51 330.68 252.00 C 331.01 257.52 326.73 261.62 323.48 265.53 C 320.58 268.59 317.63 272.74 312.95 272.66 C 308.68 273.21 304.83 270.97 301.77 268.25 C 293.94 261.39 285.99 254.67 278.24 247.73 C 275.94 246.05 272.95 243.18 269.97 244.98 C 264.74 248.27 260.58 252.99 255.34 256.28 C 231.22 273.18 200.08 279.40 171.28 273.50 C 146.28 268.64 123.29 254.49 107.35 234.68 C 91.41 214.92 82.49 189.41 83.48 163.98 C 83.26 148.01 88.09 132.52 94.35 118.00 Z" />
</svg>
