<svg version="1" xmlns="http://www.w3.org/2000/svg" width="200" height="158.667" viewBox="0 0 150.000000 119.000000"><path d="M45.2 2.2c-.7.7-1.2 2.7-1.2 4.5V10H33c-6.7 0-11-.4-11-1s-3-1-6.9-1c-5.3 0-7.9.5-10.5 2.1L1 12.2V42h36.8l6.8-6.8c8.1-8.1 14.9-11.2 26-11.9 12.6-.9 24.8 4.3 33 14.1l3.8 4.6h41.1l-.3-14.7c-.2-8.5-.8-15.3-1.4-16-.8-1-6.1-1.3-21.9-1.3H104V6.1c0-2.6-.5-4.1-1.6-4.5-.9-.3-13.8-.6-28.8-.6-19.8 0-27.5.3-28.4 1.2z"/><path d="M62.6 36.4c-5.4 2-10.6 6.5-14.1 12.1-4 6.4-4.8 17.8-1.8 24.6 2.7 6 6.6 10.4 12.2 13.7 4.1 2.4 5.6 2.7 13.6 2.7 10.3 0 14.6-1.6 20.5-7.5 5.7-5.7 7.5-10.3 7.5-19.5 0-5.9-.5-9-2-12-2.5-5.1-8-10.5-13-13-5.2-2.5-17.5-3.1-22.9-1.1z"/><path d="M1 79.9c0 21 .4 36.2.9 36.6 1.5.8 144.4.6 145.3-.3.4-.4.8-16.7.8-36.2l.1-35.5-19.5-.3c-10.8-.1-19.6-.1-19.6 0 0 .2.9 3.2 2 6.6 2.5 8.1 2.5 15.3 0 23.4l-2 6.3 7.8 7.2 7.7 7.1-3.5 3.6-3.5 3.5-6.9-6c-3.9-3.2-7.3-5.9-7.8-5.9-.4 0-3.1 1.8-6 4-24.8 18.9-61.6 2.2-63.5-28.8-.4-7.1.6-13.5 3.2-19.5.7-1.6-.5-1.7-17.4-1.7H1v35.9z"/></svg>